<svg width="229" height="295" viewBox="0 0 229 295" fill="none" xmlns="http://www.w3.org/2000/svg">
<g filter="url(#filter0_d_1797_4643)">
<path d="M145.972 258H26L54.0197 101.248H173.98L145.972 258Z" fill="white" stroke="#2E2E2E" stroke-width="1.5" stroke-miterlimit="10"/>
<path d="M145.973 257.999H202L173.98 243.629L145.973 257.999Z" fill="#DDDDDD" stroke="#2E2E2E" stroke-width="1.5" stroke-linecap="round" stroke-linejoin="round"/>
<path d="M173.979 101.248V243.629L201.999 258L173.979 101.248Z" fill="white" stroke="#2E2E2E" stroke-width="1.5" stroke-miterlimit="10"/>
<path d="M173.98 101.248V243.629L145.973 258L173.98 101.248Z" fill="white" stroke="#2E2E2E" stroke-width="1.5" stroke-miterlimit="10"/>
<path d="M84.5712 118.877C84.5712 120.988 82.8237 122.693 80.6601 122.693C78.4965 122.693 76.749 120.988 76.749 118.877C76.749 116.766 78.4965 115.062 80.6601 115.062C82.8237 115.062 84.5712 116.766 84.5712 118.877Z" fill="white" stroke="#221E1F" stroke-width="1.5" stroke-miterlimit="10"/>
<path d="M146.508 118.877C146.508 120.988 144.76 122.693 142.597 122.693C140.433 122.693 138.686 120.988 138.686 118.877C138.686 116.766 140.433 115.062 142.597 115.062C144.76 115.062 146.508 116.766 146.508 118.877Z" fill="white" stroke="#221E1F" stroke-width="1.5" stroke-miterlimit="10"/>
<path d="M142.597 119.863V46.2485C142.597 29.5469 128.712 16 111.593 16C94.4749 16 80.5898 29.5469 80.5898 46.2485V119.875" stroke="#2E2E2E" stroke-width="2" stroke-miterlimit="10" stroke-linecap="round"/>
<g opacity="0.3">
<path opacity="0.3" d="M53.5708 198.349C53.1939 197.963 52.9822 197.44 52.9822 196.894C52.9822 196.348 53.1939 195.824 53.5708 195.438L59.6257 185.734L51.862 180.7C51.4852 180.314 51.2734 179.79 51.2734 179.244C51.2734 178.698 51.4852 178.174 51.862 177.788V177.788C52.239 177.402 52.7502 177.186 53.2833 177.186C53.8163 177.186 54.3276 177.402 54.7046 177.788L65.6545 184.251C65.9528 184.428 66.2081 184.671 66.4012 184.963C66.5943 185.254 66.7202 185.587 66.7693 185.936C66.8185 186.285 66.7897 186.641 66.685 186.977C66.5803 187.313 66.4026 187.62 66.1651 187.875L56.4153 198.345C56.2289 198.537 56.0074 198.689 55.7635 198.793C55.5196 198.897 55.258 198.951 54.9939 198.951C54.7297 198.951 54.468 198.898 54.2238 198.795C53.9796 198.692 53.7577 198.54 53.5708 198.349V198.349Z" fill="#2E2E2E"/>
<path opacity="0.3" d="M101.495 198.349C101.118 197.963 100.907 197.44 100.907 196.894C100.907 196.348 101.118 195.824 101.495 195.438L107.55 185.734L99.7844 180.7C99.4075 180.314 99.1958 179.79 99.1958 179.244C99.1958 178.698 99.4075 178.175 99.7844 177.788C99.9711 177.597 100.193 177.445 100.437 177.342C100.681 177.238 100.942 177.185 101.207 177.185C101.471 177.185 101.732 177.238 101.976 177.342C102.221 177.445 102.442 177.597 102.629 177.788L113.579 184.252C113.878 184.427 114.135 184.67 114.329 184.962C114.523 185.254 114.649 185.588 114.699 185.938C114.748 186.287 114.719 186.644 114.614 186.98C114.509 187.317 114.33 187.624 114.092 187.879L104.342 198.349C104.155 198.541 103.933 198.693 103.689 198.797C103.445 198.901 103.183 198.954 102.918 198.954C102.654 198.954 102.392 198.901 102.148 198.797C101.904 198.693 101.682 198.541 101.495 198.349V198.349Z" fill="#2E2E2E"/>
</g>
<path d="M54.3591 196.605C53.9822 196.219 53.7705 195.695 53.7705 195.149C53.7705 194.603 53.9822 194.08 54.3591 193.694L62.1248 185.734L54.3591 177.782C53.9822 177.396 53.7705 176.872 53.7705 176.326C53.7705 175.78 53.9822 175.257 54.3591 174.87C54.5458 174.679 54.7675 174.527 55.0115 174.424C55.2556 174.32 55.5172 174.267 55.7814 174.267C56.0455 174.267 56.3071 174.32 56.5512 174.424C56.7952 174.527 57.0169 174.679 57.2036 174.87L66.2017 184.088C66.4132 184.305 66.581 184.561 66.6955 184.844C66.81 185.127 66.8689 185.43 66.8689 185.736C66.8689 186.042 66.81 186.345 66.6955 186.627C66.581 186.91 66.4132 187.167 66.2017 187.383L57.2036 196.605C57.0169 196.796 56.7952 196.948 56.5512 197.052C56.3071 197.156 56.0455 197.209 55.7814 197.209C55.5172 197.209 55.2556 197.156 55.0115 197.052C54.7675 196.948 54.5458 196.796 54.3591 196.605Z" fill="#2E2E2E"/>
<path d="M102.633 196.604C102.256 196.218 102.044 195.694 102.044 195.148C102.044 194.602 102.256 194.079 102.633 193.693L110.398 185.733L102.633 177.781C102.256 177.395 102.044 176.871 102.044 176.325C102.044 175.779 102.256 175.256 102.633 174.869V174.869C103.01 174.483 103.521 174.267 104.054 174.267C104.587 174.267 105.098 174.483 105.475 174.869L114.475 184.087C114.687 184.304 114.854 184.56 114.969 184.843C115.083 185.126 115.142 185.429 115.142 185.735C115.142 186.041 115.083 186.344 114.969 186.626C114.854 186.909 114.687 187.166 114.475 187.382L105.477 196.604C105.29 196.795 105.069 196.947 104.825 197.051C104.581 197.154 104.319 197.208 104.055 197.208C103.791 197.208 103.529 197.154 103.285 197.051C103.041 196.947 102.819 196.795 102.633 196.604V196.604Z" fill="#2E2E2E"/>
<path d="M92.148 196.584H76.2507C75.6478 196.584 75.0698 196.338 74.6436 195.902C74.2173 195.465 73.9776 194.873 73.9771 194.256V176.944C73.9771 176.398 74.1888 175.874 74.5658 175.488C74.9428 175.102 75.4542 174.885 75.9873 174.885C76.5205 174.885 77.0318 175.102 77.4088 175.488C77.7858 175.874 77.9976 176.398 77.9976 176.944V192.466H92.148C92.6811 192.466 93.1924 192.683 93.5694 193.069C93.9464 193.456 94.1582 193.979 94.1582 194.525C94.1582 195.071 93.9464 195.595 93.5694 195.981C93.1924 196.367 92.6811 196.584 92.148 196.584Z" fill="#2E2E2E"/>
<path d="M132.551 197.462C130.284 197.464 128.068 196.777 126.182 195.489C124.296 194.2 122.826 192.368 121.957 190.224C121.088 188.079 120.86 185.719 121.301 183.442C121.742 181.165 122.833 179.073 124.435 177.43C126.037 175.788 128.078 174.669 130.301 174.216C132.524 173.762 134.829 173.994 136.923 174.882C139.018 175.77 140.808 177.274 142.067 179.204C143.327 181.134 143.999 183.404 143.999 185.725C143.999 188.836 142.793 191.82 140.647 194.02C138.5 196.221 135.588 197.459 132.551 197.462ZM132.551 178.126C131.079 178.124 129.64 178.569 128.416 179.405C127.191 180.24 126.236 181.43 125.672 182.821C125.107 184.213 124.958 185.745 125.244 187.224C125.53 188.702 126.238 190.061 127.278 191.127C128.317 192.194 129.643 192.92 131.086 193.215C132.529 193.51 134.025 193.36 135.385 192.783C136.744 192.207 137.907 191.23 138.724 189.977C139.542 188.724 139.979 187.251 139.979 185.744C139.979 183.725 139.196 181.789 137.804 180.361C136.411 178.932 134.522 178.128 132.551 178.126Z" fill="#2E2E2E"/>
</g>
<defs>
<filter id="filter0_d_1797_4643" x="0.104004" y="0" width="227.9" height="294.358" filterUnits="userSpaceOnUse" color-interpolation-filters="sRGB">
<feFlood flood-opacity="0" result="BackgroundImageFix"/>
<feColorMatrix in="SourceAlpha" type="matrix" values="0 0 0 0 0 0 0 0 0 0 0 0 0 0 0 0 0 0 127 0" result="hardAlpha"/>
<feOffset dy="10"/>
<feGaussianBlur stdDeviation="12.5"/>
<feComposite in2="hardAlpha" operator="out"/>
<feColorMatrix type="matrix" values="0 0 0 0 0 0 0 0 0 0 0 0 0 0 0 0 0 0 0.25 0"/>
<feBlend mode="normal" in2="BackgroundImageFix" result="effect1_dropShadow_1797_4643"/>
<feBlend mode="normal" in="SourceGraphic" in2="effect1_dropShadow_1797_4643" result="shape"/>
</filter>
</defs>
</svg>
